<svg width="19" height="18" viewBox="0 0 19 18" fill="none" xmlns="http://www.w3.org/2000/svg">
<path d="M10 3H12.4648C12.7992 3 13.1114 3.1671 13.2969 3.4453L14.7031 5.5547C14.8886 5.8329 15.2008 6 15.5352 6H16.5C17.3284 6 18 6.67157 18 7.5V15.5C18 16.3284 17.3284 17 16.5 17H3.5C2.67157 17 2 16.3284 2 15.5V9" stroke="white" stroke-width="1.5" stroke-linecap="round"/>
<circle cx="10" cy="11" r="3" stroke="white" stroke-width="1.5"/>
<path d="M4 6.81261C3.39223 5.59536 2.40464 4.60777 1.18739 4C2.40464 3.39223 3.39223 2.40464 4 1.18739C4.60777 2.40464 5.59536 3.39223 6.81261 4C5.59536 4.60777 4.60777 5.59536 4 6.81261Z" stroke="white" stroke-width="1.5" stroke-linejoin="round"/>
</svg>
