<svg width="25" height="26" viewBox="0 0 25 26" fill="none" xmlns="http://www.w3.org/2000/svg">
<path fill-rule="evenodd" clip-rule="evenodd" d="M12.166 0.00955558C12.9199 -0.0601691 13.4444 0.251678 13.7395 0.945114C13.7962 4.46052 13.7962 7.97601 13.7395 11.4914C13.5446 12.114 13.1194 12.4542 12.4637 12.512C11.8446 12.4295 11.4477 12.0893 11.273 11.4914C11.2163 7.97601 11.2163 4.46052 11.273 0.945114C11.4735 0.532235 11.7712 0.220379 12.166 0.00955558Z" fill="#B4BAB7"/>
<path fill-rule="evenodd" clip-rule="evenodd" d="M19.2254 2.98626C19.6121 2.96652 19.9806 3.03737 20.3311 3.19888C24.8618 7.24594 26.0951 12.1364 24.0308 17.8701C21.4334 23.2317 17.1384 25.769 11.1456 25.4822C7.01325 24.8891 3.85226 22.8337 1.66245 19.316C-0.259951 15.7168 -0.515103 12.003 0.896995 8.17435C1.65573 6.38616 2.77551 4.86945 4.2565 3.62414C5.61128 3.53245 6.1357 4.14201 5.82994 5.45273C2.11297 9.24497 1.4892 13.4975 3.95882 18.2103C6.72255 22.1923 10.4789 23.6524 15.2281 22.5905C18.9005 21.4129 21.2394 18.9605 22.2447 15.2336C23.0314 11.1004 21.8123 7.69841 18.5876 5.02748C18.1455 4.13087 18.3581 3.45046 19.2254 2.98626Z" fill="#B4BAB7"/>
</svg>
