<svg width="19" height="20" viewBox="0 0 19 20" fill="none" xmlns="http://www.w3.org/2000/svg">
<path d="M4 6.81261C3.39223 5.59536 2.40464 4.60777 1.18739 4C2.40464 3.39223 3.39223 2.40464 4 1.18739C4.60777 2.40464 5.59536 3.39223 6.81261 4C5.59536 4.60777 4.60777 5.59536 4 6.81261Z" stroke="white" stroke-width="1.5" stroke-linejoin="round"/>
<path d="M17.59 5.41313C18.37 4.63313 18.37 3.37313 17.59 2.59313L17.41 2.41312C16.63 1.63313 15.37 1.63313 14.59 2.41312L2 15.0031L1 19.0031L5 18.0031L17.59 5.41313Z" stroke="white" stroke-width="1.5" stroke-linecap="round" stroke-linejoin="round"/>
<path d="M16.6803 14.1306L16.7674 14.3669C17.0908 15.2251 17.7624 15.9092 18.6331 16.2326L18.8694 16.3197C19.0435 16.3818 19.0435 16.6182 18.8694 16.6803L18.6331 16.7674C17.7749 17.0908 17.0908 17.7624 16.7674 18.6331L16.6803 18.8694C16.6182 19.0435 16.3818 19.0435 16.3197 18.8694L16.2326 18.6331C15.9092 17.7749 15.2376 17.0908 14.3669 16.7674L14.1306 16.6803C13.9565 16.6182 13.9565 16.3818 14.1306 16.3197L14.3669 16.2326C15.2251 15.9092 15.9092 15.2376 16.2326 14.3669L16.3197 14.1306C16.3818 13.9565 16.6182 13.9565 16.6803 14.1306Z" fill="white"/>
</svg>
