<svg width="20" height="19" viewBox="0 0 20 19" fill="none" xmlns="http://www.w3.org/2000/svg">
<path d="M15.5 8.88005C14.8072 7.39051 13.6095 6.19284 12.1199 5.5C13.6095 4.80716 14.8072 3.60949 15.5 2.11995C16.1928 3.60949 17.3905 4.80716 18.8801 5.5C17.3905 6.19284 16.1928 7.39051 15.5 8.88005Z" stroke="white" stroke-width="1.5" stroke-linejoin="round"/>
<path d="M2 7C1.94045 7 1.88089 7.02993 1.85112 7.09975L1.78164 7.28928C1.52357 7.97756 0.987593 8.52619 0.292804 8.78554L0.104218 8.85536C-0.0347395 8.90524 -0.0347395 9.09476 0.104218 9.14464L0.292804 9.21446C0.977668 9.47381 1.52357 10.0125 1.78164 10.7107L1.85112 10.9002C1.88089 10.9701 1.94045 11 2 11C2.05955 11 2.11911 10.9701 2.14888 10.9002L2.21836 10.7107C2.47643 10.0224 3.01241 9.47381 3.7072 9.21446L3.89578 9.14464C4.03474 9.09476 4.03474 8.90524 3.89578 8.85536L3.7072 8.78554C3.02233 8.52619 2.47643 7.98753 2.21836 7.28928L2.14888 7.09975C2.11911 7.02993 2.05955 7 2 7Z" fill="white"/>
<path d="M9.9996 12C6.83541 12 4.05261 13.6329 2.44788 16.102C1.88374 16.97 2.59761 18 3.63283 18H16.3664C17.4016 18 18.1155 16.97 17.5513 16.102C15.9466 13.6329 13.1638 12 9.9996 12Z" stroke="white" stroke-width="1.5" stroke-linecap="round"/>
<path d="M12 1.53513C11.4117 1.19479 10.7286 1 10 1C7.79086 1 6 2.79086 6 5C6 7.20914 7.79086 9 10 9C10.3453 9 10.6804 8.95625 11 8.87398" stroke="white" stroke-width="1.5" stroke-linecap="round"/>
</svg>
